# xmcd CD database file
#
# Track frame offsets:
#	150
#	9660
#	25230
#	43511
#	55309
#	67593
#	89171
#	106060
#	121748
#	142327
#	153846
#	170932
#	187700
#	201976
#	219906
#
# Disc length: 3167 seconds
#
# Revision: 0
# Processed by: cddbd v1.4PL0 Copyright (c) Steve Scherf et al.
# Submitted via: CDex 1.51
#
DISCID=cb0c5d0f
DTITLE=Various Artist - Drew's Famous  30 Greatest Country Duets
DYEAR=1900
DGENRE=Country
TTITLE0=Burnin' the house down
TTITLE1=Love is strange
TTITLE2=Islands in the stream
TTITLE3=Foggy mountain breakdown
TTITLE4=Jackson
TTITLE5=Poncho and lefty
TTITLE6=A bad goodbye
TTITLE7=Inside out
TTITLE8=House of love
TTITLE9=What ya gonna do with a cowboy
TTITLE10=We've got tonight
TTITLE11=I fall to pieces
TTITLE12=Valentine
TTITLE13=There's no love like our love
TTITLE14=You and i
EXTD=
EXTT0=
EXTT1=
EXTT2=
EXTT3=
EXTT4=
EXTT5=
EXTT6=
EXTT7=
EXTT8=
EXTT9=
EXTT10=
EXTT11=
EXTT12=
EXTT13=
EXTT14=
PLAYORDER=
